<?xml version="1.0" encoding="iso-8859-1"?>
<!-- Generator: Adobe Illustrator 19.0.0, SVG Export Plug-In . SVG Version: 6.00 Build 0)  -->
<svg version="1.1" id="Layer_1" xmlns="http://www.w3.org/2000/svg" xmlns:xlink="http://www.w3.org/1999/xlink" x="0px" y="0px"
	 viewBox="0 0 512 512" style="enable-background:new 0 0 512 512;" xml:space="preserve">
<path style="fill:#D07400;" d="M511.605,116.92l-0.017-0.005c2.517-22.505-6.977-41.846-29.969-55.12
	c-65.374-37.745-214.957-12.203-334.113,57.042C70.772,163.429,25.381,215.27,20.239,256.611l-0.008,0.004L0.693,392.697
	l0.011,0.001c-3.482,23.525,5.859,43.768,29.664,57.512c52.358,30.229,158.748,19.855,260.254-21.053l0.007,0.001l0.008-0.007
	c25.218-10.164,50.134-22.205,73.845-35.984c74.963-43.564,120.008-94.045,126.842-134.897l0.01-0.009l0.106-0.729
	c0.108-0.689,0.211-1.375,0.297-2.058l19.293-134.571c0.2-1.164,0.363-2.32,0.5-3.468L511.605,116.92z"/>
<path style="fill:#F18700;" d="M20.239,256.611l-0.008,0.004L0.693,392.697l0.011,0.002c-3.482,23.525,5.859,43.768,29.664,57.511
	c6.468,3.734,13.764,6.847,21.771,9.361l57.613-316.454C55.977,181.466,24.471,222.591,20.239,256.611z"/>
<path style="fill:#FF9911;" d="M481.619,61.794c-65.374-37.745-214.957-12.203-334.113,57.042
	C28.351,188.081-15.255,274.81,50.119,312.554c65.368,37.74,214.958,12.202,334.113-57.043
	C503.389,186.265,546.987,99.534,481.619,61.794z"/>
<path style="fill:#FEDAAA;" d="M132.866,313.29c-31.446-0.001-57.172-5.258-74.395-15.202
	c-14.805-8.547-22.011-19.565-22.031-33.679c-0.024-16.888,10.337-38.192,29.176-59.989c21.216-24.547,52.435-49.148,90.283-71.143
	c76.658-44.548,169.758-72.222,242.97-72.222c31.443,0,57.171,5.257,74.399,15.204c14.803,8.546,22.009,19.563,22.029,33.677
	c0.024,16.889-10.337,38.193-29.175,59.99c-21.216,24.548-52.434,49.149-90.281,71.144c-76.654,44.545-169.756,72.22-242.962,72.22
	C132.871,313.29,132.875,313.29,132.866,313.29z"/>
<path style="fill:#FFEB9A;" d="M151.186,259.259c-0.069-1.554-1.4-2.757-2.952-2.656c-23.821,1.555-47.707,21.835-60.742,14.309
	c-11.647-6.725-20.681-24.106-20.696-35.211c-0.019-13.285,16.603-29.999,31.424-47.148c16.691-19.312,52.822-18.702,82.599-36.007
	c19.155-11.131,31.527-31.906,52.376-40.088c21.298-8.357,43.847-4.336,64.981-9.04c23.317-5.19,41.547-19.133,62.165-19.133
	c24.738,0,52.68-17.787,66.234-9.961c11.646,6.724-6.96,28.751-6.944,39.857c0.019,13.287,8.858,30.385-5.963,47.532
	c-16.691,19.313-31.039,56.601-60.815,73.906c-19.154,11.131-49.232,5.209-70.081,13.389c-21.297,8.357-45.208,7.082-66.342,11.786
	c-15.905,3.54-30.5,10.04-44.714,13.815c-10.085,2.678-20.056-4.701-20.521-15.126C151.193,259.407,151.19,259.333,151.186,259.259z
	"/>
<g>
	<polygon style="fill:#40A559;" points="158.824,204.508 146.615,211.603 134.325,204.508 146.535,197.413 	"/>
	<polygon style="fill:#40A559;" points="93.995,225.121 85.239,230.21 76.428,225.122 85.183,220.034 	"/>
	<polygon style="fill:#40A559;" points="283.435,187.172 274.68,192.26 265.868,187.173 274.623,182.085 	"/>
	<polygon style="fill:#40A559;" points="273.102,239.312 260.892,246.408 248.603,239.312 260.812,232.217 	"/>
	<polygon style="fill:#40A559;" points="208.931,151.635 196.722,158.731 184.433,151.635 196.642,144.541 	"/>
	<polygon style="fill:#40A559;" points="417.27,114.674 405.061,121.77 392.772,114.675 404.981,107.579 	"/>
	<polygon style="fill:#40A559;" points="351.681,126.977 339.471,134.073 327.182,126.977 339.392,119.882 	"/>
	<polygon style="fill:#40A559;" points="227.306,209.796 219.805,214.154 212.257,209.796 219.756,205.437 	"/>
	<polygon style="fill:#40A559;" points="327.182,98.067 319.682,102.425 312.134,98.067 319.633,93.708 	"/>
	<polygon style="fill:#40A559;" points="268.376,134.073 260.876,138.431 253.328,134.073 260.827,129.715 	"/>
	<polygon style="fill:#40A559;" points="392.772,161.145 385.271,165.503 377.723,161.145 385.223,156.787 	"/>
	<polygon style="fill:#40A559;" points="174.948,252.452 168.843,256 162.699,252.452 168.803,248.905 	"/>
</g>
<g>
</g>
<g>
</g>
<g>
</g>
<g>
</g>
<g>
</g>
<g>
</g>
<g>
</g>
<g>
</g>
<g>
</g>
<g>
</g>
<g>
</g>
<g>
</g>
<g>
</g>
<g>
</g>
<g>
</g>
</svg>
